<?xml version="1.0" encoding="UTF-8" standalone="no"?>
<!-- Generator: Adobe Illustrator 14.0.0, SVG Export Plug-In . SVG Version: 6.00 Build 43363)  -->

<svg
   xmlns:dc="http://purl.org/dc/elements/1.1/"
   xmlns:cc="http://creativecommons.org/ns#"
   xmlns:rdf="http://www.w3.org/1999/02/22-rdf-syntax-ns#"
   xmlns:svg="http://www.w3.org/2000/svg"
   xmlns="http://www.w3.org/2000/svg"
   xmlns:sodipodi="http://sodipodi.sourceforge.net/DTD/sodipodi-0.dtd"
   xmlns:inkscape="http://www.inkscape.org/namespaces/inkscape"
   version="1.0"
   id="Layer_1"
   x="0px"
   y="0px"
   width="45.807px"
   height="100px"
   viewBox="0 0 45.807 100"
   enable-background="new 0 0 45.807 100"
   xml:space="preserve"
   inkscape:version="0.48.2 r9819"
   sodipodi:docname="icon_663.svg"><metadata
   id="metadata13"><rdf:RDF><cc:Work
       rdf:about=""><dc:format>image/svg+xml</dc:format><dc:type
         rdf:resource="http://purl.org/dc/dcmitype/StillImage" /></cc:Work></rdf:RDF></metadata><defs
   id="defs11" /><sodipodi:namedview
   pagecolor="#ffffff"
   bordercolor="#666666"
   borderopacity="1"
   objecttolerance="10"
   gridtolerance="10"
   guidetolerance="10"
   inkscape:pageopacity="0"
   inkscape:pageshadow="2"
   inkscape:window-width="751"
   inkscape:window-height="480"
   id="namedview9"
   showgrid="false"
   inkscape:zoom="2.36"
   inkscape:cx="22.9035"
   inkscape:cy="50"
   inkscape:window-x="511"
   inkscape:window-y="467"
   inkscape:window-maximized="0"
   inkscape:current-layer="Layer_1" />
<path
   d="M105.904,52.817"
   id="path3" />
<path
   d="M22.904,16.235c-4.484,0-8.118-3.618-8.118-8.11C14.786,3.649,18.419,0,22.904,0c4.492,0,8.125,3.649,8.125,8.125  C31.029,12.617,27.396,16.235,22.904,16.235z"
   id="path5"
   style="fill:#ff2b84;fill-opacity:1" />
<path
   d="M30.784,34.739L42.91,57.29l2.897-1.962L33.298,19.485h-9.98h-0.414H22.49h-9.98L0,55.327l2.897,1.962l12.126-22.551  c0,0,1.533,0,1.533,3.909L3.403,70.167h12.51L19.96,100h2.529h0.414h0.414h2.529l4.047-29.834h12.509L29.25,38.648  C29.25,34.739,30.784,34.739,30.784,34.739z"
   id="path7"
   style="fill:#ff2b84;fill-opacity:1" />
</svg>